<?xml version="1.0" encoding="UTF-8" standalone="no"?>
<!DOCTYPE svg PUBLIC "-//W3C//DTD SVG 1.1//EN" "http://www.w3.org/Graphics/SVG/1.1/DTD/svg11.dtd">
<svg xmlns="http://www.w3.org/2000/svg" version="1.1" viewBox="0.00 0.00 600.00 600.00">
<path fill="#008efd" d="
  M 194.32 48.28
  A 0.66 0.66 0.0 0 1 194.52 47.21
  C 248.11 24.29 307.90 19.44 364.54 33.22
  Q 425.72 48.11 475.41 90.08
  A 0.90 0.89 42.7 0 1 475.47 91.39
  L 392.42 174.44
  A 0.77 0.76 40.6 0 1 391.43 174.51
  C 362.49 152.82 327.82 142.22 291.66 144.31
  Q 246.73 146.91 209.63 174.45
  A 0.94 0.93 49.1 0 1 208.42 174.36
  L 181.53 147.47
  A 0.65 0.64 48.6 0 1 181.58 146.51
  Q 235.27 104.14 303.90 104.71
  Q 306.96 104.73 310.56 105.12
  C 313.50 105.43 315.94 105.29 319.46 105.64
  Q 353.98 109.15 384.64 124.35
  A 2.40 2.40 0.0 0 0 387.41 123.89
  L 414.14 97.16
  A 1.52 1.52 0.0 0 0 413.85 94.78
  Q 408.49 91.54 401.58 88.19
  Q 336.91 56.85 264.93 67.58
  Q 243.81 70.73 224.69 77.64
  A 1.24 1.22 -32.4 0 1 223.40 77.36
  L 194.32 48.28
  Z"
/>
<path fill="#008efd" d="
  M 125.02 90.18
  L 156.32 67.02
  A 0.34 0.34 0.0 0 1 156.77 67.06
  L 184.70 94.99
  A 0.34 0.34 0.0 0 1 184.66 95.51
  L 152.66 117.99
  A 0.34 0.34 0.0 0 1 152.23 117.95
  L 124.98 90.69
  A 0.34 0.34 0.0 0 1 125.02 90.18
  Z"
/>
<path fill="#008efd" d="
  M 54.36 400.51
  A 0.66 0.66 0.0 0 1 53.30 400.31
  C 30.40 346.76 25.56 287.02 39.34 230.43
  Q 54.22 169.30 96.16 119.65
  A 0.90 0.89 -47.3 0 1 97.47 119.59
  L 180.45 202.59
  A 0.77 0.76 -49.4 0 1 180.52 203.57
  C 158.84 232.49 148.24 267.13 150.33 303.26
  Q 152.92 348.16 180.44 385.23
  A 0.94 0.93 -40.9 0 1 180.35 386.44
  L 153.47 413.30
  A 0.65 0.64 -41.4 0 1 152.51 413.25
  Q 110.18 359.60 110.76 291.03
  Q 110.78 287.97 111.17 284.37
  C 111.48 281.43 111.34 279.00 111.69 275.48
  Q 115.20 240.99 130.40 210.35
  A 2.40 2.40 0.0 0 0 129.94 207.59
  L 103.23 180.87
  A 1.52 1.52 0.0 0 0 100.85 181.16
  Q 97.62 186.52 94.27 193.42
  Q 62.94 258.04 73.66 329.96
  Q 76.80 351.06 83.70 370.17
  A 1.24 1.22 57.7 0 1 83.42 371.46
  L 54.36 400.51
  Z"
/>
<path fill="#008efd" d="
  M 504.90 119.00
  L 528.00 150.24
  A 0.41 0.41 0.0 0 1 527.96 150.77
  L 500.06 178.67
  A 0.41 0.41 0.0 0 1 499.44 178.61
  L 477.02 146.69
  A 0.41 0.41 0.0 0 1 477.06 146.17
  L 504.28 118.96
  A 0.41 0.41 0.0 0 1 504.90 119.00
  Z"
/>
<path fill="#008efd" d="
  M 546.67 188.60
  A 0.66 0.65 -34.1 0 1 547.74 188.80
  C 570.59 242.31 575.41 302.00 561.63 358.54
  Q 546.73 419.61 504.81 469.19
  A 0.90 0.89 -47.3 0 1 503.50 469.25
  L 420.63 386.30
  A 0.76 0.76 0.0 0 1 420.56 385.32
  C 442.23 356.44 452.83 321.83 450.76 285.73
  Q 448.18 240.88 420.71 203.83
  A 0.94 0.93 -40.9 0 1 420.80 202.62
  L 447.66 175.79
  A 0.65 0.64 -41.3 0 1 448.61 175.84
  Q 490.89 229.46 490.29 297.97
  Q 490.26 301.02 489.87 304.62
  C 489.56 307.55 489.70 309.99 489.35 313.50
  Q 485.83 347.96 470.64 378.56
  A 2.40 2.39 35.6 0 0 471.10 381.33
  L 497.77 408.02
  A 1.52 1.52 0.0 0 0 500.15 407.74
  Q 503.38 402.39 506.73 395.49
  Q 538.05 330.94 527.37 259.08
  Q 524.24 238.00 517.35 218.91
  A 1.23 1.22 57.7 0 1 517.63 217.62
  L 546.67 188.60
  Z"
/>
<path fill="#008efd" d="
  M 274.78 187.69
  L 274.78 356.74
  A 0.52 0.52 0.0 0 0 275.30 357.26
  L 374.22 357.26
  A 0.52 0.52 0.0 0 1 374.74 357.78
  L 374.74 393.96
  A 0.52 0.52 0.0 0 1 374.22 394.48
  L 233.21 394.48
  A 0.52 0.52 0.0 0 1 232.69 393.96
  L 232.69 187.69
  A 0.52 0.52 0.0 0 1 233.21 187.17
  L 274.26 187.17
  A 0.52 0.52 0.0 0 1 274.78 187.69
  Z"
/>
<path fill="#008efd" d="
  M 96.24 469.99
  L 73.08 438.66
  A 0.32 0.32 0.0 0 1 73.11 438.25
  L 101.14 410.22
  A 0.32 0.32 0.0 0 1 101.63 410.26
  L 124.11 442.27
  A 0.32 0.32 0.0 0 1 124.07 442.68
  L 96.72 470.03
  A 0.32 0.32 0.0 0 1 96.24 469.99
  Z"
/>
<path fill="#008efd" d="
  M 406.61 540.55
  A 0.66 0.66 0.0 0 1 406.41 541.62
  C 352.87 564.52 293.14 569.37 236.56 555.60
  Q 175.44 540.73 125.80 498.81
  A 0.90 0.89 42.7 0 1 125.74 497.50
  L 208.70 414.53
  A 0.77 0.76 40.6 0 1 209.68 414.46
  C 238.60 436.13 273.23 446.71 309.36 444.62
  Q 354.24 442.02 391.30 414.51
  A 0.94 0.93 49.1 0 1 392.51 414.60
  L 419.38 441.46
  A 0.65 0.64 48.6 0 1 419.33 442.42
  Q 365.69 484.75 297.13 484.18
  Q 294.07 484.16 290.48 483.77
  C 287.54 483.46 285.10 483.60 281.59 483.25
  Q 247.10 479.75 216.47 464.57
  A 2.40 2.39 -54.4 0 0 213.70 465.03
  L 187.00 491.73
  A 1.52 1.52 0.0 0 0 187.29 494.11
  Q 192.65 497.35 199.55 500.69
  Q 264.16 532.00 336.07 521.27
  Q 357.16 518.12 376.26 511.22
  A 1.23 1.22 -32.4 0 1 377.55 511.50
  L 406.61 540.55
  Z"
/>
<path fill="#008efd" d="
  M 475.45 497.55
  A 0.73 0.72 -42.9 0 1 475.41 498.61
  Q 461.22 510.82 446.27 520.31
  Q 443.96 521.78 442.26 520.05
  Q 434.88 512.51 416.29 494.07
  A 0.93 0.92 -37.8 0 1 416.48 492.62
  Q 433.09 482.91 447.64 470.72
  A 0.77 0.77 0.0 0 1 448.67 470.77
  L 475.45 497.55
  Z"
/>
</svg>
